# xmcd CD database file
#
# Track frame offsets:
#	187
#	24787
#	45817
#	70272
#	96385
#	118615
#	140065
#	156540
#	181005
#	203572
#
# Disc length: 3076 seconds
#
# Revision: 0
# Processed by: cddbd v1.5.1PL2 Copyright (c) Steve Scherf et al.
# Submitted via: CDex 1.51
#
DISCID=7f0c020a
DTITLE=樋口紗絵子 - make it happen
DYEAR=1990
DGENRE=JPop
TTITLE0=make it happen
TTITLE1=cheap shoes generation
TTITLE2=shower story
TTITLE3=reinbow
TTITLE4=stardust rain
TTITLE5=atomic eyes
TTITLE6=statue of liberty
TTITLE7=blaze
TTITLE8=I am a moom
TTITLE9=海を見ている
EXTD=YEAR: 1990
EXTT0=
EXTT1=
EXTT2=
EXTT3=
EXTT4=
EXTT5=
EXTT6=
EXTT7=
EXTT8=
EXTT9=
PLAYORDER=
